PathFileType	3	(X/Y/Z)	D:\VICON_DB\Goncalves\Pilot01\09-03-2026\bw_sq_01.trc
DataRate	CameraRate	NumFrames	NumMarkers	Units	OrigDataRate	OrigDataStartFrame	OrigNumFrames
200.0	200.0	6	34	mm	200.0	384	767	
Frame#	Time	LASI			RASI			LPSI			RPSI			LTHI			LTHAP			LTHAD			LKNE			LKNM			LTIB			LTIAP			LTIAD			LANK			LMED			LHEE			LTOE			LFMH			LSMH			LVMH			RTHI			RTHAP			RTHAD			RKNE			RKNM			RTIB			RTIAP			RTIAD			RANK			RMED			RHEE			RTOE			RFMH			RSMH			RVMH			
		X1	Y1	Z1	X2	Y2	Z2	X3	Y3	Z3	X4	Y4	Z4	X5	Y5	Z5	X6	Y6	Z6	X7	Y7	Z7	X8	Y8	Z8	X9	Y9	Z9	X10	Y10	Z10	X11	Y11	Z11	X12	Y12	Z12	X13	Y13	Z13	X14	Y14	Z14	X15	Y15	Z15	X16	Y16	Z16	X17	Y17	Z17	X18	Y18	Z18	X19	Y19	Z19	X20	Y20	Z20	X21	Y21	Z21	X22	Y22	Z22	X23	Y23	Z23	X24	Y24	Z24	X25	Y25	Z25	X26	Y26	Z26	X27	Y27	Z27	X28	Y28	Z28	X29	Y29	Z29	X30	Y30	Z30	X31	Y31	Z31	X32	Y32	Z32	X33	Y33	Z33	X34	Y34	Z34	
384	1.915	312.44476	593.37793	-1037.1023	406.96042	663.53552	-1299.7867				518.10547	708.85046	-1205.6067	255.86807	575.78033	-1044.8586	295.66611	600.95959	-1091.9724	226.8606	516.02771	-999.65289	107.84109	408.57669	-984.89252				166.83099	237.53149	-984.48572	71.497643	289.06067	-1031.639	142.55356	201.16437	-1020.0882	275.80704	66.592339	-1031.8778				319.04828	69.890663	-1084.5626	199.21671	69.958221	-1051.3615	145.58569	45.216293	-1075.4963				163.41245	26.180862	-995.62427	213.19107	506.20181	-1400.344	296.54745	601.05475	-1372.8641	217.40158	569.29199	-1351.3528	112.78492	413.11853	-1380.3712				137.75856	243.31517	-1381.6132	76.741066	276.92584	-1327.7953	125.97506	208.61334	-1325.1671	286.17215	61.772141	-1354.0369				324.26639	63.983158	-1310.2451	199.46869	67.278999	-1332.6095	151.17967	49.101322	-1308.4368				165.60951	23.623182	-1381.4515
385	1.92	312.67358	591.45551	-1037.1277	421.09171	669.91327	-1289.7673				522.93176	706.48859	-1200.3647	256.12283	574.25348	-1044.9998	295.70859	598.6767	-1091.9619	226.77266	514.71124	-999.7525	107.16713	407.97247	-984.92413				166.34235	237.23573	-984.55695	70.867554	288.57364	-1031.7545	142.1864	200.84285	-1020.2204	275.74051	66.609337	-1031.9357				319.02451	69.973022	-1084.6674	199.16988	69.962646	-1051.4369	145.56067	45.20977	-1075.5361				163.43391	26.27207	-995.65198	212.93164	504.884	-1400.3718	295.57214	597.57703	-1374.6469	217.53543	567.90826	-1351.2775	112.02921	412.38287	-1380.4136				137.21254	242.92279	-1381.5638	76.081703	276.38675	-1327.7368	125.53844	208.21475	-1325.1106	286.10767	61.790295	-1353.9861				324.19928	64.032364	-1310.16	199.42712	67.270439	-1332.5559	151.15128	49.098423	-1308.4105				165.61906	23.668806	-1381.4303
386	1.925	312.91147	589.54303	-1037.1548	433.86115	675.44556	-1280.6851				527.24939	704.17572	-1195.6405	256.39487	572.73236	-1045.1577	295.75995	596.40204	-1091.9375	226.69858	513.4118	-999.86554	106.51143	407.38354	-984.97742				165.86742	236.9507	-984.64459	70.255356	288.1004	-1031.8904	141.82845	200.53035	-1020.364	275.67776	66.630119	-1031.9976				319.01144	70.059242	-1084.7806	199.12546	69.966835	-1051.5184	145.5376	45.200306	-1075.5818				163.4576	26.363352	-995.68524	212.68509	503.59033	-1400.4003	294.69427	594.32196	-1376.2393	217.67407	566.54407	-1351.1978	111.29549	411.66306	-1380.4705				136.68153	242.5387	-1381.5306	75.440765	275.85983	-1327.6927	125.11485	207.82538	-1325.0646	286.04657	61.80603	-1353.9343				324.13367	64.080482	-1310.076	199.38481	67.263702	-1332.5062	151.12384	49.095703	-1308.3883				165.62958	23.708757	-1381.4115
387	1.93	313.15878	587.64203	-1037.1816	445.04678	680.00031	-1272.7				530.98444	701.90784	-1191.5178	256.68329	571.2171	-1045.3282	295.8208	594.13776	-1091.8993	226.63872	512.1286	-999.98883	105.87416	406.80908	-985.04688				165.4061	236.67484	-984.74524	69.660492	287.63995	-1032.0422	141.47961	200.22595	-1020.5158	275.61905	66.653557	-1032.0634				319.00784	70.148201	-1084.9021	199.0835	69.970482	-1051.6052	145.51636	45.188126	-1075.6326				163.48325	26.453842	-995.72363	212.45468	502.32208	-1400.4307	293.93472	591.3042	-1377.6149	217.82028	565.19977	-1351.1155	110.58553	410.95981	-1380.5444				136.16603	242.16219	-1381.5137	74.818794	275.34567	-1327.6647	124.70492	207.4456	-1325.0303	285.98907	61.819099	-1353.8824				324.06989	64.127434	-1309.9934	199.34222	67.258629	-1332.4611	151.0976	49.093113	-1308.3704				165.64079	23.74291	-1381.396
388	1.935	313.41495	585.75372	-1037.2052	454.56482	683.53064	-1265.8746				534.1123	699.68097	-1188.0273	256.98697	569.70795	-1045.5071	295.89142	591.8866	-1091.8469	226.59326	510.86044	-1000.1191	105.25538	406.24817	-985.1264				164.95816	236.40659	-984.8551	69.082138	287.19119	-1032.2048	141.13979	199.92868	-1020.6728	275.56445	66.678596	-1032.1331				319.01135	70.238182	-1085.0297	199.04402	69.973297	-1051.696	145.49677	45.173512	-1075.6873				163.51044	26.542736	-995.76648	212.24326	501.08063	-1400.4647	293.30371	588.5238	-1378.7649	217.97675	563.87616	-1351.0328	109.90107	410.27383	-1380.6368				135.66679	241.79234	-1381.5133	74.216415	274.84467	-1327.6541	124.30923	207.07584	-1325.0093	285.93549	61.829361	-1353.8311				324.00861	64.173126	-1309.9131	199.29979	67.255188	-1332.4207	151.07283	49.090672	-1308.3564				165.65239	23.771152	-1381.384
389	1.94	313.67899	583.8797	-1037.2227	462.43475	686.05231	-1260.1982				536.6449	697.49103	-1185.1598	257.3045	568.20477	-1045.6887	295.97128	589.65204	-1091.7816	226.56218	509.60605	-1000.2519	104.65513	405.69946	-985.20941				164.52341	236.14432	-984.96973	68.51915	286.75262	-1032.3728	140.80885	199.63754	-1020.8311	275.51404	66.704262	-1032.2064				319.01895	70.326965	-1085.162	199.00694	69.975174	-1051.7899	145.47878	45.156822	-1075.7451				163.53883	26.629311	-995.81293	212.05351	499.86694	-1400.5046	292.80322	585.97083	-1379.6948	218.14618	562.5733	-1350.9525	109.24369	409.60556	-1380.7493				135.18445	241.42822	-1381.5289	73.634087	274.35727	-1327.6624	123.92828	206.71632	-1325.0022	285.88589	61.836777	-1353.781				323.95035	64.21756	-1309.8356	199.25789	67.253532	-1332.3855	151.04982	49.088432	-1308.347				165.66425	23.793425	-1381.3759
